<svg width="38" height="49" fill="none" xmlns="http://www.w3.org/2000/svg"><g filter="url(#filter0_d)"><path d="M5.5 25.5V39l.5.5.5 1h3l1-.5 1-1-.5-19 1.5 3.5L15 28l1.5 4.5v1l.5 1 .5.5h3l2-2 .5-1.5.5-2.5 1-3.5 1-3.5.5-1v14l.5 2.5.5 2-.5 1v1l1.5.5h2l2-1.5.5-1.5-.5-3-.5-2.5v-14l-.5-3v-12l-.5-1L30 3h-1.5l-2.5.5-1 .5-.5 1v1l-1 5.5-1 3.5-2 6-1 2.5H19l-1.5-3L16 17 11.5 6 11 5v-.5L10 4H7L5.5 5 5 6l-.5 1v4.5L5 13v3l.5 3.5v6z" fill="#67BEAC"/><path d="M5.5 25.5V39l.5.5.5 1h3l1-.5 1-1-.5-19 1.5 3.5L15 28l1.5 4.5v1l.5 1 .5.5h3l2-2 .5-1.5.5-2.5 1-3.5 1-3.5.5-1v14l.5 2.5.5 2-.5 1v1l1.5.5h2l2-1.5.5-1.5-.5-3-.5-2.5v-14l-.5-3v-12l-.5-1L30 3h-1.5l-2.5.5-1 .5-.5 1v1l-1 5.5-1 3.5-2 6-1 2.5H19l-1.5-3L16 17 11.5 6 11 5v-.5L10 4H7L5.5 5 5 6l-.5 1v4.5L5 13v3l.5 3.5v6z" stroke="#67BEAC"/></g><defs><filter id="filter0_d" x="0" y=".5" width="37.01" height="48" filterUnits="userSpaceOnUse" color-interpolation-filters="sRGB"><feFlood flood-opacity="0" result="BackgroundImageFix"/><feColorMatrix in="SourceAlpha" values="0 0 0 0 0 0 0 0 0 0 0 0 0 0 0 0 0 0 127 0"/><feOffset dy="2"/><feGaussianBlur stdDeviation="2"/><feColorMatrix values="0 0 0 0 0.776471 0 0 0 0 0.776471 0 0 0 0 0.776471 0 0 0 1 0"/><feBlend in2="BackgroundImageFix" result="effect1_dropShadow"/><feBlend in="SourceGraphic" in2="effect1_dropShadow" result="shape"/></filter></defs></svg>