<svg xmlns="http://www.w3.org/2000/svg">
  <symbol viewBox="0 0 18 18" id="icon-search">
    <path d="M17.6932 16.0568L14.2159 12.5795C15.2386 11.25 15.75 9.61364 15.75 7.875C15.75 3.47727 12.2727 0 7.875 0C3.47727 0 0 3.47727 0 7.875C0 12.2727 3.47727 15.75 7.875 15.75C9.61364 15.75 11.25 15.1364 12.5795 14.2159L16.0568 17.6932C16.2614 17.8977 16.4659 18 16.875 18C17.4886 18 18 17.4886 18 16.875C18 16.6705 17.8977 16.3636 17.6932 16.0568ZM2.25 7.875C2.25 4.80682 4.80682 2.25 7.875 2.25C10.9432 2.25 13.5 4.80682 13.5 7.875C13.5 10.9432 10.9432 13.5 7.875 13.5C4.80682 13.5 2.25 10.9432 2.25 7.875Z"/>
  </symbol>
  <symbol viewBox="0 0 21 18" id="icon-cart">
    <path d="M20.1884 6.85716H16.6377L13.1884 0.380944C12.9855 -8.61287e-06 12.5797 -0.0952351 12.1739 0.0952412C11.7681 0.285717 11.6667 0.66667 11.8696 1.04762L15.0145 6.85716H5.7826L8.92753 1.04762C9.13043 0.66667 8.92754 0.285717 8.6232 0.0952412C8.2174 -0.0952351 7.8116 0.0952295 7.6087 0.380944L4.1594 6.85716H0.811583C0.405785 6.85716 0 7.14286 0 7.61905C0 8 0.304336 8.38094 0.811583 8.38094H1.01449L1.92753 11.2381C1.72463 11.3333 1.62317 11.5238 1.62317 11.8095C1.62317 12.1905 1.92753 12.4762 2.33332 12.4762L4.05797 18H16.942L18.6667 12.4762C19.0725 12.4762 19.3768 12.1905 19.3768 11.8095C19.3768 11.619 19.2754 11.3333 19.0725 11.2381L19.9855 8.38094H20.1884C20.5942 8.38094 21 8.09524 21 7.61905C21 7.14286 20.5942 6.85716 20.1884 6.85716ZM15.6232 16.4762H5.07247L3.85506 12.381H16.942L15.6232 16.4762ZM17.2464 10.9524H3.34782L2.53623 8.28573H18.058L17.2464 10.9524Z"/>
  </symbol>
  <symbol viewBox="0 0 50 26" id="icon-arrow-left">
    <path d="M50 11H7.7l8.1-8.2L13 0 0 13l13 13 2.8-2.8L7.7 15H50v-4z"/>
  </symbol>
  <symbol viewBox="0 0 50 26" id="icon-arrow-right">
    <path d="M0 11h42.3l-8.1-8.2L37 0l13 13-13 13-2.8-2.8 8.1-8.2H0v-4z"/>
  </symbol>
  <symbol viewBox="0 0 25 24" id="icon-tel">
    <path d="M17.44 24h-1.11c-4.939-.593-8.568-2.864-11.189-5.728C2.521 15.408.403 11.753 0 6.716V5.333c.1-.888.504-1.481 1.109-2.074.605-.69 1.613-1.481 2.52-1.58.706 0 1.815.494 2.218 1.087.403.493.605 1.58.806 2.37.202.889.605 1.975.504 2.765-.201 1.186-1.814 1.68-2.217 2.568 1.612 3.655 4.133 6.42 7.56 8.198.806-.494 1.613-1.877 2.823-1.877.403 0 1.008.198 1.41.297.505.098.908.296 1.311.493.706.297 2.017.593 2.42 1.186.403.592.705 1.58.605 2.172-.303 1.284-2.42 2.667-3.63 3.062zM12.6 1.481c5.948 0 10.888 4.741 10.888 10.667H25C25 5.432 19.456 0 12.6 0v1.481z"/>
    <path d="M12.6 9.185v1.58c.807 0 1.412.593 1.412 1.383h1.613c0-1.58-1.31-2.963-3.024-2.963zM12.6 6.124c3.327 0 6.15 2.666 6.15 6.024h1.613c0-4.148-3.427-7.506-7.661-7.506v1.482H12.6z"/>
  </symbol>
  <symbol viewBox="0 0 32 21" id="icon-email">
    <path d="M28 0H4C1.8 0 0 1.8 0 4v13c0 2.2 1.8 4 4 4h24c2.2 0 4-1.8 4-4V4c0-2.2-1.8-4-4-4zM2 5.3l7 5.3-7 5.3V5.3zM30 17c0 1.1-.9 2-2 2H4c-1.1 0-2-.9-2-2l7.8-5.9 4.4 3.3c.5.4 1.2.6 1.8.6.6 0 1.3-.2 1.8-.6l4.4-3.3L30 17zm0-1.2l-7-5.3 7-5.3v10.6zm-12.8-2.2c-.4.3-.8.4-1.2.4-.4 0-.9-.1-1.2-.4l-4.1-3.1-.8-.6L2 4c0-1.1.9-2 2-2h24c1.1 0 2 .9 2 2l-12.8 9.6z"/>
  </symbol>
  <symbol viewBox="0 0 101 77" id="icon-play">
    <path d="M97.285 18.147s-.903-7.018-3.815-10.126c-3.614-4.01-7.73-4.11-9.538-4.311C70.58 2.707 50.5 2.707 50.5 2.707h-.1s-20.08 0-33.433 1.003c-1.907.2-5.923.3-9.538 4.31-2.81 3.109-3.815 10.127-3.815 10.127s-.903 8.222-.903 16.443v7.72c0 8.221.903 16.443.903 16.443s.904 7.018 3.815 10.126c3.615 4.01 8.434 3.91 10.542 4.311 7.63.802 32.529 1.003 32.529 1.003s20.08 0 33.432-1.003c1.908-.2 5.924-.3 9.538-4.311 2.811-3.108 3.815-10.126 3.815-10.126s.904-8.222.904-16.443v-7.72c0-8.222-.904-16.443-.904-16.443z"/>
    <path d="M50.4 77c-1.004 0-25.1-.3-32.73-1.003h-.2c-.302-.1-.704-.1-1.105-.2-2.51-.3-7.229-.902-10.843-5.013-3.414-3.61-4.418-10.828-4.518-11.63C1.004 58.853 0 50.63 0 42.41v-7.72c0-8.321.904-16.443.904-16.743v-.1c.1-.803 1.204-7.921 4.517-11.63 4.016-4.412 8.534-4.914 10.743-5.114.2 0 .402 0 .502-.1h.1C30.12 0 50.2 0 50.4 0h.1c.2 0 20.28 0 33.633 1.003h.1c.201 0 .302 0 .503.1 2.208.2 6.726.702 10.742 5.113 3.414 3.61 4.418 10.828 4.518 11.63 0 .301 1.004 8.523 1.004 16.844v7.72c0 8.322-.904 16.443-1.004 16.744v.1c-.1.802-1.205 8.02-4.518 11.63-4.016 4.412-8.534 4.913-10.742 5.113-.201 0-.402 0-.502.1h-.1C70.78 77 50.6 77 50.4 77zm-32.027-6.417c7.53.702 31.324 1.003 32.127 1.003.703 0 20.18 0 33.131-1.003.201 0 .402 0 .603-.1 1.807-.2 4.618-.501 7.228-3.309 1.807-2.005 2.912-6.918 3.113-8.622.1-.501.903-8.422.903-16.142v-7.72c0-7.82-.903-15.64-1.004-16.142-.301-2.406-1.405-6.817-3.112-8.522-2.61-2.908-5.422-3.108-7.229-3.309-.2 0-.401 0-.602-.1C70.379 5.615 50.6 5.615 50.4 5.615h-.1c-.202 0-20.08 0-33.132 1.002-.2 0-.402 0-.602.1-1.808.201-4.619.502-7.229 3.309-1.807 2.005-2.912 6.918-3.112 8.622-.1.602-.904 8.422-.904 16.142v7.72c0 7.72.904 15.641.904 16.142.3 2.407 1.405 6.818 3.112 8.522 2.31 2.607 5.321 3.008 7.53 3.31.602-.101 1.004 0 1.506.1z" fill="#fff"/>
    <path d="M38.452 20.553v35.793L68.371 38.5 38.452 20.553z" fill="#fff"/>
  </symbol>
  <symbol viewBox="0 0 102 34" id="icon-logo-footer">
    <path d="M19.27 21.381c-.1-2.685-.502-5.27-.502-7.956 0-2.187.401-4.375-.4-6.464 0-.199.1-.497.1-.696.2-.994-3.31-.497-3.81.497-.301.299-.502.597-.401.995 0 .1.1.199.1.298-.702 3.183-1.604 6.265-2.607 9.348-.4 1.194-.902 2.288-1.303 3.481-.602-1.094-1.203-2.188-1.604-3.381-1.404-3.381-2.607-6.862-4.311-10.144.2-1.492-3.208-1.392-3.91 0C-.18 9.05-.08 10.74.221 12.53c.3 1.99.401 3.978.401 6.067 0 3.978.401 7.856.401 11.834-.401.398-.501.895-.1 1.392.2.2.4.398.601.498 1.003.696 3.61.099 3.61-1.293 0-4.078-.301-8.155-.402-12.332v-1.193c.1.1.1.298.2.398.602 1.59 1.304 3.182 2.207 4.674.902 1.491 1.303 3.082 1.804 4.674-.2.199-.3.497-.2.696 0 .199.1.298.3.398.602.497 1.805.298 2.507 0 .3-.1.601-.299.802-.398.3-.2.902-.696.702-1.194 0-.099-.1-.198-.1-.298.5-1.293.701-2.585 1.002-3.878.3-1.393.802-2.785 1.303-4.078.1.597.1 1.194.2 1.89.201 2.585 0 5.072 0 7.558 0 .795.1 1.591.201 2.486.1.298.401 1.79.3 1.89-.801.497-.6 1.093.201 1.292.903.2 2.106-.1 2.808-.696 1.203-1.094.601-2.784.4-4.177-.5-2.386 0-4.972-.1-7.359zM27.69 22.077c-.1-1.989-.801-3.878-.801-5.867 0-2.287.2-4.575-.2-6.862-.101-.696-4.111.1-3.91.995.3 2.088.2 4.176.2 6.364 0 1.99.501 3.879.701 5.868.301 2.088-.1 4.176.1 6.165.101.995.803 2.686.101 3.58-.401.498 1.504.299 1.604.299.802-.1 1.805-.398 2.306-.995.702-.795.2-2.386.1-3.38-.3-1.99-.1-4.178-.2-6.167zM44.032 18.796c-2.105-2.785-5.915-.796-8.622-1.492-1.403-.398-1.403-2.287-1.403-3.381 0-1.392-.1-2.685-.301-4.077-.1-1.094 0-2.089.702-2.884.1-.1.902-.299.802-.299.4-.1.702-.1 1.103-.1 1.503-.099 4.611.2 4.01 2.487-.3.994 3.609.398 3.91-.597 1.203-4.574-7.319-3.68-9.725-3.083-2.206.597-4.612 1.79-4.812 4.376-.1 1.194.3 2.387.3 3.58.1 1.393-.2 2.785.301 4.078 1.103 2.983 5.514 1.59 7.82 1.69 3.81.299 2.707 5.47 2.707 7.857 0 1.292 1.203 3.38.2 4.475-.6.696-2.005.696-2.806.795-.803.1-2.206.299-2.707-.497-1.003-1.392.1-3.779-.1-5.37-.1-.895-4.111-.1-3.91.994.3 2.586-1.404 6.067 2.406 6.564 2.406.298 5.213-.199 7.519-.895 1.203-.398 2.305-.895 3.208-1.79 1.002-.895.702-2.287.4-3.48-.5-3.084.903-6.465-1.002-8.951zM61.477 18.596c-.1-3.779-.702-7.458-.702-11.237 0-1.99-4.01-1.293-4.01.298 0 3.58.5 7.16.701 10.74v.2c-1.904 0-3.91.198-5.915.198.2-4.574-.601-9.149-.4-13.823 0-.597-3.91-.1-3.91.995-.201 4.475.6 8.85.5 13.326-.1 2.088-.2 4.276-.3 6.364 0 1.094.2 2.188.3 3.282.1.994.502 2.287.201 3.282-.2.795 3.61.298 3.91-.696.501-1.79-.2-3.978-.4-5.768-.201-1.691 0-3.481.1-5.172 2.004-.1 4.11-.298 6.115 0 .1 1.393.2 2.785.3 4.078.1 1.193.201 2.287.201 3.48 0 .995.1 2.487-.2 3.481-.802 2.088 3.107 1.89 3.709.398.702-1.89.501-4.177.401-6.166-.2-2.486-.602-4.873-.602-7.26zM78.42 22.972c-.903-2.784-2.407-5.17-3.61-7.757a106.742 106.742 0 002.908-5.867c.802-1.79 1.403-3.779 3.108-5.072.601-.398.601-.895-.301-.994-.902-.1-2.105.199-2.807.696-1.404 1.293-2.406 2.685-3.108 4.376-.902 2.088-1.905 4.077-2.907 6.066-.1.1-.1.298-.201.398-.501.298-.802.795-.602 1.292a66.867 66.867 0 01-2.506 4.575c-.3-5.47-1.002-11.039-1.203-16.508 0-1.293-4.01-.497-3.91.994.2 6.862 1.203 13.625 1.303 20.486v.1c-.3.298-.2.497.1.597 0 1.79-.1 3.48-.2 5.27-.501.697.501 1.094 1.103 1.094h.1c.702 0 2.607-.298 2.707-1.392.2-2.088.3-4.177.2-6.265 1.605-1.69 2.908-3.58 4.111-5.57.802 1.492 1.504 2.984 2.005 4.575.902 2.685 2.306 5.271 3.108 7.956.501 1.79 4.511.696 3.91-.994-1.003-2.785-2.406-5.271-3.308-8.056zM101.979 18.398c-.2-.796-1.403-.796-2.305-.796v-.994c-.1-2.685-.2-5.37-.402-7.956-.2-2.486-1.604-3.282-4.01-3.182-2.406.099-5.213.497-7.519 1.392-2.606.994-4.11 2.884-4.611 5.668-.502 2.984.2 6.166.4 9.15.201 3.48.1 6.96.1 10.442 0 .596 3.91 0 3.91-.995v-8.254c0-.796-.1-1.591-.1-2.387 1.404-.596 3.71 0 5.114.1 1.102.1 2.205-.2 3.208-.299 0 2.288.1 4.575.2 6.862 0 1.194.501 3.48-.4 4.475-.402.498 1.503.299 1.603.299.802-.1 1.805-.398 2.306-.995.902-1.094.501-3.779.401-5.072-.1-1.89-.1-3.779-.1-5.668 1.103-.2 2.406-.895 2.205-1.79zm-14.637-.1c-.1-1.193-.2-2.486-.3-3.68-.201-2.287.1-5.568 2.305-6.96.602-.398 1.705-.299 2.406-.398 1.003-.2 2.005-.398 2.808.199 1.203.795.902 3.68.902 4.873 0 1.988.2 3.977.3 5.966-.6.1-1.102.1-1.704.1-2.306-.2-4.611-.597-6.717-.1zM24.282 6.663c.501-.1 1.003-.199 1.504-.497l.2-.2c.502-.297 1.003-.795.702-1.391-.501-1.094-.4-2.188-.4-3.382C26.287.2 25.284 0 24.482 0c-.702.1-2.206.597-2.206 1.492 0 .994-.1 1.989.1 2.983 0 .1-.1.199-.1.398-.1.199 0 .398.1.597v.397c.1.2.2.398.401.498.602.298 1.103.298 1.504.298z"/>
  </symbol>
  <symbol viewBox="0 0 23 22" id="icon-insta">
    <path d="M22.599 12.694c0-2.4-.3-4.8-.3-7.1 0-.8-.1-1.5-.2-2.3-.1-.3-.1-.7-.2-1.1-.3-.2-.2-.6-.5-.8-.4-.2-1.2-.1-1.7-.2-.7 0-1.3-.1-1.9-.2-1.9-.1-4-.1-6-.1s-4-.1-5.7-.4h-2.2c-.1 0-.1.1-.2.1-.6 0-1.1.2-1.6.3-.2.1-.4.2-.7.3-.1.2-.5.1-.6.4-.2.2.2.5 0 .6v.9c.2.1 0 .6.1.8v1c0 1.3.1 2.4.1 3.7.5 2.8.4 6.5.1 9.4.2.6.4 1.1.5 1.7.3.5.3 1.1.7 1.5.5.2 1.2.2 1.9.2.4.1.7.3 1.1.3 2.8-.2 5.5-.2 8.4-.2 2.7.2 5.8.2 8.3-.2.2-.1.1-.5.2-.8-.1-.4.2-.4.2-.8.2-2.1.2-4.5.2-7zm-13-6.2c.8-.2 1.5-.3 2.4-.3.7.1 1.3.3 1.9.5.1.2-.2.5.2.7.1 0 .1 0 .2.1.4 0 .8.2 1.1.4.5.1.5.5 1.1.4-.1.2-.1.5-.1.8.3 1.2.5 2.8.3 4.3-.2.2-.2.4-.3.7-.3.3-.5.8-.8 1.1-.1.2-.3.4-.5.5-.1.2-.2.5-.5.5-.3.2-.6 0-.8-.1-.4.2-.9.3-1.2.6l-2.4-.3c-.2-.1-.5-.3-.8-.3-.2-.2-.5-.4-.8-.5-.1-.1-.3-.1-.5-.2-.2 0-.2-.2-.5-.2-.1-.4-.4-.6-.5-1.1-.2-.3-.3-.8-.5-1.2 0-1.4.1-2.7.4-3.8.3-.6.8-1.1 1.1-1.7.2 0 .4-.1.4-.3.3.1.4-.1.7-.1.2 0 .2-.3.4-.5zm-1.7-2.7c-.1-.3-.1-.7-.1-1.1 0-.3.3-.3.3-.5 0-.1-.1-.1-.2-.1.1-.1.7-.1.8 0 .1.5-.4.5-.5.7 0 .2.3 0 .5.1 0 .9-.1 1.5 0 2.2h-.5c0 .2.2.2.5.2-.1.3.1.4.1.6-.2.2-.7 0-1.1.1 0-.6.3-1.4.2-2.2zm-.7-1.6c.1 0 .1 0 .2.1.2.3 0 .7-.1.9-.2-.2 0-.7-.1-1zm.2 1.8c-.1-.1-.2-.2-.2-.5.2.1.2.3.2.5zm0 1.4c-.1.1-.1 0-.1-.2.1-.1.1.1.1.2zm-.2.2c.2 0 .1.2.2.2 0 .2-.3.2-.4.1.1-.1.2-.2.2-.3zm-2.3-1.2c0-.1 0-.2-.1-.2-.1-.7.1-1.4 0-2 .3-.2.8 0 1.1-.1v1.1c-.1.1-.2.1-.4.1-.1.3.3.1.4.3 0 .9-.1 1.8.2 2.4-.6-.1-.9.1-1.4.1.1-.6 0-1.4.5-1.6 0-.1-.3 0-.3-.1zm-.5 0c-.2 0-.2-.5-.1-.6.3 0 .2.5.1.6zm-.2 1c.1-.3 0-.3.1-.7.2 0 .2.8-.1.7zm.2-2.1c-.3.1-.3-.3-.2-.4.3 0 .4.3.2.4zm0-1.1c0 .2-.1.2-.1.3-.2 0-.1-.2-.2-.2.1-.1.2-.1.3-.1zm-.2 3.7c.1 0 .1.3-.1.2.1 0 .1-.1.1-.2zm-.7-3.7c0 .3-.4.3-.4 0h.4zm-1 .1c0 .2-.3.2-.4.4-.2-.2.1-.5.4-.4zm-.4.7c.2-.2.5-.4.7-.6 0-.1.1-.1.1-.2h.2c.1.4-.3.3-.3.5 0 .1-.1.1-.1.2 0 .3.1.6.1 1-.3 0-.3.3-.6.2 0-.4-.2-.6-.1-1.1zm.1 3.3v-1.6c.2-.2.4-.4.6-.5.3.5.2 1.4.5 1.9-.4.1-.8.1-1.1.2zm18.2 11.1c-.1 1-.2 2-.4 2.8-2.9.1-6 0-8.9.2-.2 0-.3 0-.2-.2-.3 0-.3.2-.5.2.2-.3.4-.9.2-1.3-.8 0-.8.8-1.1 1.3-.7-.1-1.1.1-1.8.1.2-.7.7-1 .9-1.7-.4-.5-1 .1-1.2.5-.2.5-.6.8-.8 1.3h-1c.2-.5.5-.9.8-1.4.2-.5.6-.7.7-1.4-.2-.3-.4 0-.7 0-.1.2-.3.3-.4.5-.2.4-.5.7-.7 1.1-.2.2-.3 0-.5.2-.4.3-.6.7-1 1-.2-.1 0-.4.2-.4 0-.2-.1-.5.1-.6.1-.4.2-.6.4-.9.1-.7.5-1.2.7-1.9-.6.1-.7.6-1 1-.2.4-.5.8-.7 1.3-.2-.1 0-.6-.1-.8.1-.6.3-1.1.4-1.7.1-.2.2-.5.2-.8.2-.2 0-.6-.1-.8-.2 0-.4.1-.5.3-.2 0-.2.5-.3.3 0-2.6-.5-4.8-.5-7.4 0-.3-.2-.4-.2-.7 1.6 0 3.1.1 4.8.2-.1.1-.2.3-.3.4-.1.1-.2.2-.4.3-.6 1.7-1 4-.6 6.2.2.6.6 1 1 1.4.9.5 1.6 1.1 2.5 1.7 1.7.4 3.8.4 5.5 0 .2-.1.5-.2.7-.4 1.4-1.2 2.8-2.5 3-4.9v-1.4c-.2-1.6-.7-2.9-1.7-3.6.3-.2 1.1 0 1.7.1h.7c.4 0 .9-.1 1.4 0 .1.2.1.5.2.8-.1 1.7-.2 3.3-.2 5.1.1.5.1 1 .2 1.4-.2.8-.3 1.7-.5 2.6zm.4-11.2c-.6-.1-1.2-.3-1.9-.4.1-.3.8 0 1-.2.4-.2.3-.9.3-1.5 0-.3.1-.6.1-1.1-.4-1-1.8-.4-2.9-.5-.2.7-.5 1.8-.3 2.7.2.5 1 .3 1.5.5-.1.3-.7.1-1 .1-.3-.1-.7-.1-1-.2-2.3.1-4.3 0-6.5.2.1-1.2.1-2.5-.1-3.6h3.1c-.3.4-.9.5-1.3.8-.4.2-.9.5-1.1.9.2.1.5-.2.8-.4.4-.1.5-.4.8-.5.4-.4 1.1-.6 1.7-.9.4 0 .7 0 1 .1 1.3 0 2.5.1 3.8.1.6.1 1.5.1 2 .3l.3.9c-.1 1-.3 1.8-.3 2.7zm-5.9-3.7c.1-.1 0-.1 0 0zm0 0c-.5.2-1 .3-1.4.7.5-.2 1.1-.3 1.4-.7zm1.1.6c.1-.1 0-.1 0 0zm-1.8.9c.7-.2 1.2-.6 1.7-.9-.4 0-.6.3-1 .4-.1.2-.5.2-.7.5zm-.7-.8c-.1 0 .1.1 0 0zm-.6.6c.1-.1 0-.1 0 0zm-.1.1c.1 0 .1-.1 0 0 0-.1 0-.1 0 0zm-.1 0c.1 0 .1 0 0 0 0-.1 0 0 0 0zm-.8.6c.3-.1.6-.3.8-.6-.3.2-.6.4-.8.6zm2.3 1c.5 0 .7-.4 1.2-.5.3-.3.8-.4 1-.8-.6 0-.8.4-1.2.5-.3.4-.8.5-1 .8zm-2.3-1c-.3 0 0 .3 0 0zm-.6.4c.1 0 .2 0 0 0 .1-.1 0 0 0 0zm2.9.6c-.2.1 0 .1 0 0zm-1.2 1.8c-.2-.2-.7-.2-1-.4-.7 0-1.2.1-1.7.2-.3.2-.6.3-.9.5-.3.2-.4.4-.8.5-.2.2-.4.5-.7.6 0 .2-.2.3-.3.4-.1.1-.1.3-.2.4 0 .1 0 .3-.1.3.1 1.5.3 2.9.7 4.2.3.6 1 .8 1.4 1.3.6.3 1.3.4 2.1.5.3-.1.6-.1.9-.1 1.2-.2 2.1-.7 2.8-1.4.1-.3.3-.5.5-.7-.3-.7.3-1.1.5-1.6 0-1.3-.2-2.5-.6-3.4-.3-.6-.9-.8-1.4-1.1-.1 0-.2 0-.2-.1-.2-.1-.7-.2-1-.1zm-3.4 4.4c-.1-.1-.1-.2-.2-.4.3-.1.2.2.2.4zm.1.3c0-.1.1 0 0 0 0 .2 0 .1 0 0zm.4-2.1c0-.1.1 0 0 0 .1.1 0 .1 0 0zm1.7-2.1c-.2.3 0 .6.1.8-.3 0-.6-.8-.1-.8zm.4 3.9c-.1 0 0 0 0 0 .1 0 0 .1 0 0zm.7 2.9c0-.1.1 0 .2 0 0 .1-.2.1-.2 0zm2.2-2.5c-.2-.1-.1.2-.4.2.1-.2.1-.3.2-.5.2 0 .3.1.2.3zm-1.1-3.8c.2.1.4.2.6.4.1.2.2.4.4.5.1.8.2 1.5.2 2.4-.3.1-.4.3-.7.4-.8 0-1.4-.2-1.9-.5-.2-.3-.4-.5-.5-.8v-1.1c.2-.2.3-.4.5-.6.2-.1.5-.2.5-.6 0-.1-.1-.1-.1-.2.2 0 .2.2.4.2s.3-.2.6-.1z"/>
  </symbol>
  <symbol viewBox="0 0 16 30" id="icon-facebook">
    <path d="M12.302 6.037c1 0 1.998 0 2.697-.312.4-.834.6-1.98.6-3.125-.2 0-.1-.313-.2-.417 0-.208-.3-.208-.3-.417-.3-.208-.5-.416-.699-.625-.7-.208-1.399-.312-2.198-.52-.799 0-1.898-.105-2.597.104-2.597 0-3.996 1.145-5.294 2.5 0 .104 0 .208-.1.208-.6 1.667-.1 3.75-.2 5.833.1.417.1 1.042.2 1.458-.999.313-2.198.417-3.396.521-.3.313-.2 1.146-.2 1.77.1.626.3 1.147.4 1.667.2.209.599.417.798.521.1 0 .1.104.1.104.5.313 1.499 0 2.298.105-.1 2.083.3 4.062 0 5.937 0 .312.3.417.2.833 0 1.042-.1 2.084.2 2.813-.3.52-.5 1.041-.4 1.875.1 0 .1.208.1.312-.1.52.6.208.5.73.199.52-.4.207-.4.52v.938c.5.312 1.498.208 2.297.208.9-.417 2.198-.521 2.797-1.25.5.208.9 0 1.199-.209 0-.312.3-.312.2-.729 0-.312-.2-.52-.1-.937v-3.02c-.2-2.396 0-5.105-.3-7.5.9-.105 1.898-.105 2.597-.417.4-.521.4-1.25.5-1.98.2-.208.2-.624.2-1.04.2-.21.1-.73.1-1.147-.1-.625-.2-1.354-.8-1.458-.899-.208-1.998.625-2.996.313 0-1.146-.3-2.396 0-3.542.799-.208 1.498-.417 2.197-.625zm-3.796 5c.1.312.3.52.4.729.1 0 .2 0 .2.104 1.198.104 2.197-.104 3.096-.312 0 1.041-.3 1.77-.5 2.604-.698 0-1.498.312-1.997.208-.3.208-.4.52-.6.73 0 .416.1.52 0 .832-.2.105-.1.626-.2.834v1.562c.1.313-.099.313-.099.521v3.646c-.1.312.1.312.1.52v3.125c.1.313-.1.834.1.938-.1.417-.4 0-.8.104-.499.104-.898.417-1.498.417.1-.417.3-.625.3-1.146 0-.417-.4-.313-.5-.52.2-.626.6-1.147.7-1.876.2-.52.699-1.354.3-1.875-.5-.104-.5.313-.8.417 0 .104 0 .208-.1.208 0 .104 0 .209-.1.209 0 .104-.2.104 0 0 0-.105 0-.209.1-.209 0-.104 0-.208.1-.208v-.313c.4-.625.7-1.25.8-2.083.2-.312.3-.729.399-1.041.2-.313.3-.938.1-1.25-.5 0-.8.312-.9.729-.299-.209.2-.417.1-.73.1-.208.2-.624.3-.833.2-.416.6-1.354 0-1.666-.4 0-.599.208-.699.52-.2.209-.4.417-.5.73-.399-.104-.1-.73-.2-1.146-.099-.521.1-.938 0-1.25-.598-.833-1.997-.104-3.196-.313-.1-.312-.2-1.041-.1-1.25 1-.104 2.498.209 3.197-.208 0-.104 0-.208.1-.208.1-.73-.3-1.042-.5-1.459.2-.833 0-2.083.1-3.124.2-.105.3-.417.5-.625.1-1.042.699-1.563.699-2.604-.3 0-.6-.105-.6.208-.299-.104-.399.52-.499.208-.1-.52.2-.625.3-1.041.6-.417 1.199-.834 1.898-1.25 1.698-.209 4.595-.417 6.093.208.1.625-.3.937-.2 1.562h-1.498c-1.099.209-1.998.73-2.997 1.042-.2.104-.3.313-.5.417 0 .416-.199.625-.299 1.041-.3 1.459-.1 2.709-.1 4.167z"/>
  </symbol>
  <symbol viewBox="0 0 25 20" id="icon-twitter">
    <path d="M24.225 4.395c-.2-.4-.9-.3-1.4-.4h-1.1c.1-.4.3-.6.5-1 .1-.4.3-.7.2-1.3l.3-.6c.1-.1.2-.5.1-.7-.1-.2-.3-.2-.6-.2-.1 0-.2.1-.2.1-.4.4-.8 1-1.3 1.4h-.1c-.1 0 0 0-.1.1s-.3.2-.4.2c-.3.2-.5.4-.9.5-.5-.2-1.2-.3-1.9-.4-1.2.1-2.3.2-3 .7-.9.3-1.5 1-2.1 1.6 0 .3-.3.4-.4.7 0 0 0 .1-.1.1 0 .2-.1.3-.1.5 0 .1.2.4 0 .5-.8-.1-1.5-.6-2.1-1-.7-.4-1.5-.6-2.1-1.1-.7-.3-1.3-.8-1.8-1.3-.2-.3-.5-.5-.7-.9-.4-.2-.2-.9-.7-.9-.3 0-.3.2-.4.4-.1.2-.4.2-.4.5 0 0 0 .1-.1.1-.2 1.1-.5 2-.5 3.3.1.4.3.7.6 1-.4.1-.7.2-.9.5-.1 1.1.4 1.6.7 2.3.1.4.4.7.6 1 0 .2.2.3.3.4 0 .1.1.1.1.2s.3.2.1.2c-.4.1-1 .1-1.3.4-.1.3-.1.8 0 1.1 0 .2.3.3.3.5.5.4 1.1.7 1.6 1.1.6.2 1.2.3 1.9.4-.1.3-.3.6-.6.7-.8.4-1.8.5-2.7.7-.6 0-1 .2-1.6.2-.3.1-.9.1-1.1.2l-.2.2c-.1.4.1.7.4.9 0 .3.2.3.4.4.1.2.3.3.4.4.5.5 1.3.8 1.9 1.1.8.2 1.6.4 2.5.5.9.1 1.9.1 2.8.2h1c.5.1 1.2.1 1.9.1.1-.1.3-.1.5-.1.5-.3 1.2-.4 1.6-.7.6-.2 1-.6 1.6-.9.9-.8 1.9-1.3 2.5-2.4.2-.2.4-.4.4-.7.3-.2.4-.5.6-.7.4-.4.7-.9 1-1.4.3-.5.6-1.1.9-1.6 0-.4.3-.5.3-.9.2-.2.2-.7.4-.9 0-.3 0-.4.1-.6 0-1.3 0-2.4-.3-3.4.6-.2 1.2-.3 1.6-.6.8.3 1.3-.1 1.1-.7zm-3.4 4c-.2.9-.6 1.4-1 2 .1.4-.1.5-.1.9-.2.3-.3.7-.4 1-.2.3-.3.6-.5.9-.4.5-.8 1.1-1.2 1.6-.4.6-.9 1-1.3 1.5s-.9.9-1.4 1.3c-.5.2-.9.4-1.3.7-.2.1-.5.2-.7.3-.2.1-.5.1-.7.3-1.1.1-2.3.2-3.6.1-1-.1-2.1-.2-3-.4-.9-.2-1.5-.7-2.3-1 .2-.2.6-.2 1-.2 0-.2.4 0 .4-.1.3.1.3-.1.5-.1.6-.2 1.2-.3 1.7-.6.3-.1.4-.4.7-.6 0-.2.1-.3.2-.4 0-.3.2-.4.1-.8.1-.2.3-.3.3-.7-.1-.1-.1-.3-.3-.4 0-.2-.4-.1-.4-.2-.3 0-.4 0-.6-.1-.2 0-.5.1-.5-.1-.8 0-1.3-.4-1.9-.7.4-.3 1-.4 1.3-.7.5-.1 1.1-.1 1.1-.7 0-.7-.8-.7-1.3-.8-.8-.7-1.2-1.7-1.8-2.5.2-.2.6-.2.7-.4.5.1.5-.3.7-.5 0-.5-.3-.6-.6-.8-.3-.2-.5-.5-.7-.7 0-.8 0-1.7.1-2.4.1 0 .1 0 .1.1.2.4.6.8.8 1.2.5.4.9.9 1.6 1.1.5.4 1.1.6 1.6 1 .6.3 1.2.6 1.7.9.7.2 1.1.7 2 .6l.6-.3c.3-.5-.1-1.1.1-1.6.3-.7.8-1 1.3-1.5.3-.2.6-.3.8-.5.3-.1.7-.2 1-.4.4 0 .7-.1 1-.1h1.3c.2.1.5.1.7.1.2.1.4.3.7.4.8.7 1.3 1.7 1.4 3 0 .3.1.7.1 1.3zm.3-5.6c-.1.3-.2.7-.6.8 0-.1-.1-.1-.1-.2 0-.2.2-.2.3-.3.1-.1.2-.3.4-.3.1 0 0-.1 0 0zm-5.5 3c.2.1.3.3.5.4.1.2.3.3.6.4 0-.2.3 0 .4-.2.2 0 .2-.2.3-.3 0-.5-.1-1-.4-1.3-.7-.5-1.7 0-1.4 1z"/>
  </symbol>
  <symbol viewBox="0 0 27 35" id="icon-logo-htmlacademy">
    <path d="M13.6 0h-.1L0 1.4v24.7l13.5 8 13.4-8V1.4L13.6 0zM25 12.1L13.5 5.3v-.1h-.1l-.1-.1v.1L1.9 12.1v-9l11.5-1.2L25 3.1v9zM13.4 6.8l11.5 6.7-4.5 2.6-7.1-4.2v1.4l5.9 3.5-.9.5-5-3v1.4l3.8 2.3-.8.5-3-1.8v1.4l1.9 1.1-1.8 1.1L2 13.6l11.4-6.8zM1.9 15.1l11.4 6.8v1l-7.9-4.7v1.4l8 4.8v1.1l-8-4.7v1.4l8 4.8 8.1-4.9v-5.2l3.4-2v10l-11.5 6.9L1.9 25v-9.9z"/>
  </symbol>
</svg>
